<?xml version="1.0" encoding="UTF-8"?>
<!-- Generator: visioncortex VTracer 0.6.4 -->
<svg version="1.1" xmlns="http://www.w3.org/2000/svg" width="2000" height="667">
<path d="M0 0 C660 0 1320 0 2000 0 C2000 220.11 2000 440.22 2000 667 C1340 667 680 667 0 667 C0 446.89 0 226.78 0 0 Z " fill="#FEFEFE" transform="translate(0,0)"/>
<path d="M0 0 C1.05348633 0.27706787 2.10697266 0.55413574 3.19238281 0.83959961 C14.53126721 3.94464442 25.61822237 7.68882231 31.75 18.375 C33.56111428 22.22596824 34.00413858 25.26612685 34.01742554 29.50935364 C34.03022049 31.36082253 34.03022049 31.36082253 34.04327393 33.24969482 C34.0425749 34.61022962 34.04165183 35.97076432 34.04052734 37.33129883 C34.04651547 38.77091316 34.05332168 40.21052429 34.06088257 41.65013123 C34.07854705 45.56042999 34.08323887 49.47064116 34.08451414 53.38097596 C34.08593906 55.83471403 34.09021569 58.28843011 34.09550858 60.7421627 C34.11402884 69.33504002 34.122179 77.92785535 34.12060547 86.52075195 C34.119412 94.4724467 34.14035139 102.4238665 34.1720928 110.37549192 C34.19849145 117.23876879 34.20896263 124.10195744 34.20769465 130.96528453 C34.20719073 135.04725998 34.2125474 139.12899256 34.23405075 143.21091652 C34.44060653 185.4384583 26.38483888 223.37694628 -0.25 257.375 C-0.90226562 258.23609375 -1.55453125 259.0971875 -2.2265625 259.984375 C-7.7906796 267.17422179 -13.98269762 273.79996422 -20.25 280.375 C-20.72373047 280.87209473 -21.19746094 281.36918945 -21.68554688 281.88134766 C-28.14060562 288.60574441 -34.9613605 294.57959181 -42.25 300.375 C-43.08789062 301.08011719 -43.92578125 301.78523438 -44.7890625 302.51171875 C-99.29245299 348.37031165 -99.29245299 348.37031165 -124.0546875 346.81640625 C-147.30448935 342.14162403 -169.62536088 325.24476709 -188.25 311.375 C-189.08072021 310.76060059 -189.08072021 310.76060059 -189.92822266 310.13378906 C-196.86135713 304.98667503 -203.42992276 299.56248493 -209.76171875 293.6796875 C-211.92854385 291.67273803 -214.13173857 289.73276718 -216.375 287.8125 C-242.75867956 264.8279448 -262.7628769 234.11237142 -272.25 200.375 C-272.52328125 199.40433594 -272.7965625 198.43367187 -273.078125 197.43359375 C-278.05428683 177.94362658 -277.56530035 157.82817403 -277.55158257 137.86903906 C-277.55049914 134.73989772 -277.55542948 131.61077607 -277.560188 128.48163903 C-277.57119693 121.10102501 -277.57176627 113.72046195 -277.56567383 106.33984375 C-277.5596079 98.75341726 -277.57203085 91.16717501 -277.5932439 83.58077991 C-277.61088687 77.02743225 -277.61685798 70.47414318 -277.61360615 63.92077267 C-277.61180132 60.02341293 -277.61435129 56.12618544 -277.62832069 52.2288475 C-277.64094282 48.57273455 -277.63891399 44.91691011 -277.62590981 41.26080132 C-277.62244012 39.29342258 -277.6336824 37.3260348 -277.64547729 35.35868835 C-277.5958631 26.95465603 -276.81357828 20.18374488 -272.0625 13.125 C-265.16204931 6.37789266 -257.17226413 3.73295911 -248.12109375 0.95263672 C-246.4402597 0.43373623 -244.76647802 -0.10787906 -243.09375 -0.65234375 C-239.8268698 -1.70060814 -236.54732806 -2.67670148 -233.25 -3.625 C-232.60691895 -3.81030273 -231.96383789 -3.99560547 -231.30126953 -4.18652344 C-155.40224443 -25.61725592 -75.48268968 -19.95451542 0 0 Z " fill="#007E7E" transform="translate(667.25,181.625)"/>
<path d="M0 0 C0.33 0 0.66 0 1 0 C1.63524171 10.36385082 -0.27942378 20.32975165 -2 30.5 C-2.31160044 32.38235247 -2.62287398 34.26475907 -2.93383789 36.1472168 C-5.56258322 51.9279184 -8.47117737 67.65667721 -11.50976562 83.36328125 C-11.67646255 84.23502487 -11.84315948 85.10676849 -12.01490784 86.00492859 C-12.32491723 87.62498941 -12.63930802 89.24422104 -12.95909119 90.86238098 C-13.73978479 94.95930378 -14.25782684 98.82771011 -14 103 C-12.17441452 104.82558548 -9.28632755 104.22714438 -6.82788086 104.29711914 C-5.86205833 104.32659889 -5.86205833 104.32659889 -4.87672424 104.35667419 C-2.73953814 104.42075959 -0.60222472 104.47797104 1.53515625 104.53515625 C3.01347565 104.57814607 4.49178271 104.62156252 5.97007751 104.66539001 C9.8678575 104.77979565 13.76577902 104.88838239 17.66375732 104.99578857 C21.63856941 105.10633206 25.61322163 105.22233592 29.58789062 105.33789062 C37.39178034 105.5639608 45.19582748 105.78388856 53 106 C51.35721641 111.30703991 49.59262191 116.18401481 46.8046875 121.01953125 C46.17981445 122.11007812 45.55494141 123.200625 44.91113281 124.32421875 C44.23282779 125.487216 43.55410562 126.64997005 42.875 127.8125 C42.16470515 129.04147374 41.45475106 130.27064448 40.74511719 131.5 C33.66015423 143.73157581 26.29987603 155.79640666 18.921875 167.85253906 C8.32709746 185.2036407 -2.00390103 202.71859888 -12.25 220.27734375 C-25.43984886 242.87437422 -25.43984886 242.87437422 -30.9375 251.75 C-31.33219482 252.39308105 -31.72688965 253.03616211 -32.13354492 253.69873047 C-34.75614387 257.87807193 -34.75614387 257.87807193 -37 259 C-37.22489709 251.62492654 -36.36749737 244.71057469 -35.1875 237.4375 C-35.02185547 236.37208984 -34.85621094 235.30667969 -34.68554688 234.20898438 C-33.75819088 228.3403957 -32.72067921 222.50458542 -31.58984375 216.671875 C-29.49797526 205.77602347 -27.97549516 194.78889166 -26.375 183.8125 C-25.90721649 180.6187925 -25.43851874 177.425224 -24.96841431 174.2318573 C-24.67864919 172.26211627 -24.39030713 170.29216521 -24.10360718 168.32197571 C-23.97322052 167.43302109 -23.84283386 166.54406647 -23.70849609 165.62817383 C-23.59541107 164.85258621 -23.48232605 164.0769986 -23.36581421 163.27790833 C-22.9738491 160.83715955 -22.49904617 158.42092367 -22 156 C-23.09874199 156.00666183 -23.09874199 156.00666183 -24.21968079 156.01345825 C-31.12059678 156.05352172 -38.0214954 156.08397767 -44.92249775 156.10362434 C-48.47043631 156.11406444 -52.01827883 156.12822763 -55.56616211 156.15087891 C-59.64437791 156.17675331 -63.72249271 156.1864709 -67.80078125 156.1953125 C-69.71338493 156.21079636 -69.71338493 156.21079636 -71.66462708 156.22659302 C-73.43612373 156.22681961 -73.43612373 156.22681961 -75.2434082 156.22705078 C-76.28487503 156.231492 -77.32634186 156.23593323 -78.39936829 156.24050903 C-81 156 -81 156 -84 154 C-83.38680623 149.66834277 -81.82199922 146.41984664 -79.75390625 142.58203125 C-79.42739075 141.97216873 -79.10087524 141.36230621 -78.76446533 140.73396301 C-77.70354247 138.75662187 -76.63326183 136.78452785 -75.5625 134.8125 C-74.82402684 133.44147827 -74.08599206 132.07022033 -73.34838867 130.69873047 C-69.17747533 122.95696321 -64.96048929 115.24107161 -60.66064453 107.57006836 C-57.18877712 101.37279229 -53.81123772 95.12613835 -50.4375 88.875 C-42.60042386 74.37449436 -34.46879254 60.05701135 -26.27703857 45.75463867 C-20.65109933 35.93084503 -15.09461646 26.07078616 -9.60473633 16.17016602 C-6.54882539 10.67912653 -3.45378418 5.25224117 0 0 Z " fill="#FCFDFC" transform="translate(556,204)"/>
<path d="M0 0 C59.57894737 0 59.57894737 0 69.71875 9.6328125 C75.31129109 15.74622752 77.67240337 21.85555863 77.41015625 30.15625 C76.3157935 37.74383172 72.43450185 43.31643089 66.55078125 48.0390625 C65 49 65 49 63 49 C63.95602515 51.43974847 63.95602515 51.43974847 67.625 52.625 C73.2774348 55.33938865 77.32989456 59.72659334 80.171875 65.296875 C82.18289689 71.86115399 82.32941955 81.12754624 79.5 87.5 C74.00682959 96.26246215 65.6868471 100.20706515 56 103 C51.46892571 103.59265493 47.04385708 103.59044066 42.48046875 103.48828125 C40.84881775 103.48072815 40.84881775 103.48072815 39.1842041 103.47302246 C35.18502821 103.44718889 31.18623292 103.37738653 27.1875 103.3125 C18.215625 103.209375 9.24375 103.10625 0 103 C0 69.01 0 35.02 0 0 Z " fill="#08787B" transform="translate(759,204)"/>
<path d="M0 0 C1.6875 1.3203125 1.6875 1.3203125 4.1875 3.7578125 C4.1875 4.4178125 4.1875 5.0778125 4.1875 5.7578125 C4.8475 5.7578125 5.5075 5.7578125 6.1875 5.7578125 C6.1875 3.1178125 6.1875 0.4778125 6.1875 -2.2421875 C11.4675 -2.2421875 16.7475 -2.2421875 22.1875 -2.2421875 C22.27817207 7.9985254 22.35142909 18.23896801 22.39474869 28.47999287 C22.41554873 33.236245 22.44372639 37.99220624 22.48925781 42.74829102 C22.5329879 47.34542351 22.55669402 51.9422777 22.56700897 56.53960228 C22.57435191 58.28614871 22.58868995 60.03268137 22.61042023 61.77910805 C22.76694913 74.89055422 22.04025575 85.89195053 12.453125 95.81640625 C2.52496649 104.32381104 -10.19985448 105.69675389 -22.8125 104.7578125 C-29.98953249 103.65856345 -36.94818184 102.16818376 -43.8125 99.7578125 C-43.66886473 98.38258115 -43.52246483 97.00763848 -43.375 95.6328125 C-43.29378906 94.86710937 -43.21257812 94.10140625 -43.12890625 93.3125 C-42.77370001 90.44453849 -42.30359894 87.605361 -41.8125 84.7578125 C-40.85472656 85.0465625 -39.89695312 85.3353125 -38.91015625 85.6328125 C-28.12865653 88.70854998 -14.62801829 91.94189787 -3.9375 87.0078125 C0.00094054 84.17213531 1.66720967 82.31868348 3.1875 77.7578125 C3.41201458 75.53206915 3.59532878 73.30199731 3.75 71.0703125 C3.83378906 69.89082031 3.91757813 68.71132813 4.00390625 67.49609375 C4.09478516 66.14064453 4.09478516 66.14064453 4.1875 64.7578125 C3.58421875 65.16773438 2.9809375 65.57765625 2.359375 66 C1.56015625 66.53882813 0.7609375 67.07765625 -0.0625 67.6328125 C-0.85140625 68.16648437 -1.6403125 68.70015625 -2.453125 69.25 C-9.93809438 74.0334407 -18.46208546 73.84789457 -27.125 72.1328125 C-35.73840175 68.92103558 -41.74043313 64.08704018 -45.8125 55.7578125 C-50.77825452 44.36181142 -51.4413428 28.06347505 -47.59375 16.23046875 C-43.4732558 7.28005564 -36.97958139 0.9394845 -28.0625 -3.2421875 C-18.95355865 -6.0933602 -7.93878368 -5.44080433 0 0 Z " fill="#047879" transform="translate(1292.8125,234.2421875)"/>
<path d="M0 0 C5.94 0 11.88 0 18 0 C18 35.31 18 70.62 18 107 C12.72 107 7.44 107 2 107 C2 104.36 2 101.72 2 99 C1.52691406 99.39832031 1.05382813 99.79664063 0.56640625 100.20703125 C-9.3723204 108.16963681 -19.56359677 109.34481892 -32 108 C-35.47022735 107.19140333 -38.06843234 106.00612369 -41 104 C-41.70511719 103.525625 -42.41023438 103.05125 -43.13671875 102.5625 C-51.34616024 96.24987956 -54.355689 86.90429395 -56 77 C-57.2619042 63.73747038 -56.40528704 51.46081678 -47.6953125 40.78125 C-40.39360372 33.10940852 -33.13992602 29.90157506 -22.625 29.5 C-12.41282751 29.71360122 -7.1265741 32.8734259 0 40 C0 26.8 0 13.6 0 0 Z " fill="#06797B" transform="translate(1078,200)"/>
<path d="M0 0 C57.1809291 0 57.1809291 0 68.9609375 9.59765625 C76.15254913 17.3185997 77.62442547 26.16835982 77.32421875 36.4375 C76.52821894 45.18390753 73.31382466 52.10414275 66.8125 58.125 C56.54738306 66.50379203 44.72695197 67.2983541 32 67.125 C27.71 67.08375 23.42 67.0425 19 67 C19 78.88 19 90.76 19 103 C12.73 103 6.46 103 0 103 C0 69.01 0 35.02 0 0 Z " fill="#07787B" transform="translate(1458,204)"/>
<path d="M0 0 C56.0210325 0 56.0210325 0 67.29296875 10.04296875 C75.14087352 18.34831059 76.55184476 24.95488869 76.28125 36.30859375 C75.6276865 44.88661467 73.1330662 51.82719471 67 58 C58.57344113 64.68774513 50.82188778 67.14522959 40.0703125 67.09765625 C38.90773926 67.09515869 37.74516602 67.09266113 36.54736328 67.09008789 C35.0879834 67.08098389 33.62860352 67.07187988 32.125 67.0625 C27.46375 67.041875 22.8025 67.02125 18 67 C18 78.55 18 90.1 18 102 C12.06 102 6.12 102 0 102 C0 68.34 0 34.68 0 0 Z " fill="#04787A" transform="translate(1498,360)"/>
<path d="M0 0 C7.26 0 14.52 0 22 0 C29.37400557 19.04430676 36.32498773 38.21798583 43.12890625 57.47265625 C47.39228918 69.52963208 51.73201804 81.55109822 56.25805664 93.51220703 C56.8109436 94.98149658 56.8109436 94.98149658 57.375 96.48046875 C57.69210937 97.31473389 58.00921875 98.14899902 58.3359375 99.00854492 C59 101 59 101 59 103 C53.06 103 47.12 103 41 103 C39.49627347 98.70960566 37.99685773 94.41779019 36.5 90.125 C35.85611328 88.29001953 35.85611328 88.29001953 35.19921875 86.41796875 C34.59013672 84.66806641 34.59013672 84.66806641 33.96875 82.8828125 C33.59169922 81.80402832 33.21464844 80.72524414 32.82617188 79.61376953 C32 77 32 77 32 75 C18.47 75.33 4.94 75.66 -9 76 C-11.92006084 84.51050428 -11.92006084 84.51050428 -14.83374023 93.02319336 C-15.19669189 94.07643799 -15.55964355 95.12968262 -15.93359375 96.21484375 C-16.30540771 97.29886475 -16.67722168 98.38288574 -17.06030273 99.49975586 C-18 102 -18 102 -19 103 C-20.34267413 103.08631874 -21.68974322 103.10706473 -23.03515625 103.09765625 C-23.84404297 103.09443359 -24.65292969 103.09121094 -25.48632812 103.08789062 C-26.33646484 103.07951172 -27.18660156 103.07113281 -28.0625 103.0625 C-28.91650391 103.05798828 -29.77050781 103.05347656 -30.65039062 103.04882812 C-32.76695663 103.03700373 -34.88348685 103.01906769 -37 103 C-34.89655863 95.66230542 -32.44889368 88.49424249 -29.82421875 81.328125 C-29.42191544 80.22289993 -29.01961212 79.11767487 -28.6051178 77.97895813 C-27.30205858 74.40160581 -25.99488563 70.82577319 -24.6875 67.25 C-23.78855934 64.78513965 -22.8897975 62.32021407 -21.99121094 59.85522461 C-14.70732813 39.88635593 -7.37370503 19.93586146 0 0 Z " fill="#067778" transform="translate(1382,204)"/>
<path d="M0 0 C7.26 0 14.52 0 22 0 C22.78310547 2.19897949 22.78310547 2.19897949 23.58203125 4.44238281 C25.8254192 10.74030999 28.07066613 17.03757333 30.31678772 23.33452606 C30.77068834 24.60709512 31.22453596 25.87968308 31.67832947 27.15229034 C36.71042978 41.2640696 41.75371725 55.37124729 46.890625 69.4453125 C47.26513794 70.47168823 47.63965088 71.49806396 48.0255127 72.55554199 C49.78646476 77.37785048 51.55239893 82.19827597 53.32421875 87.01660156 C53.950566 88.727197 54.57687073 90.43780802 55.203125 92.1484375 C55.48963928 92.92285187 55.77615356 93.69726624 56.0713501 94.49514771 C58 99.77383296 58 99.77383296 58 102 C52.06 102 46.12 102 40 102 C38.68536226 98.25073702 37.37320652 94.50063713 36.0625 90.75 C35.50272461 89.15478516 35.50272461 89.15478516 34.93164062 87.52734375 C34.57392578 86.50253906 34.21621094 85.47773438 33.84765625 84.421875 C33.51773682 83.47924805 33.18781738 82.53662109 32.84790039 81.56542969 C32.13444092 79.40676798 31.55140701 77.20562804 31 75 C17.47 75 3.94 75 -10 75 C-10.66 77.97 -11.32 80.94 -12 84 C-12.45484813 85.53199729 -12.9366293 87.05698426 -13.47265625 88.5625 C-13.73240234 89.29597656 -13.99214844 90.02945313 -14.25976562 90.78515625 C-14.52466797 91.51605469 -14.78957031 92.24695313 -15.0625 93 C-15.33126953 93.76183594 -15.60003906 94.52367187 -15.87695312 95.30859375 C-17.86157464 100.86157464 -17.86157464 100.86157464 -19 102 C-21.86267567 102.07325168 -24.700719 102.09238205 -27.5625 102.0625 C-28.36880859 102.05798828 -29.17511719 102.05347656 -30.00585938 102.04882812 C-32.00393756 102.03700518 -34.00197783 102.01906914 -36 102 C-35.42404878 96.75390964 -34.15499173 92.11806115 -32.2890625 87.17578125 C-32.00885254 86.41606018 -31.72864258 85.65633911 -31.43994141 84.87359619 C-30.50795475 82.35083747 -29.56642799 79.831749 -28.625 77.3125 C-27.96587661 75.5334022 -27.3075285 73.75401701 -26.64990234 71.97436523 C-25.59236791 69.11298137 -24.53421096 66.25184019 -23.47354126 63.39161682 C-20.56116975 55.53589769 -17.68138096 47.6685715 -14.8125 39.796875 C-14.38037201 38.61147629 -13.94824402 37.42607758 -13.50302124 36.20475769 C-11.781902 31.48259936 -10.06127895 26.76026047 -8.34112549 22.03775024 C-7.13740935 18.73438576 -5.93215929 15.43158475 -4.7265625 12.12890625 C-4.36369141 11.13183655 -4.00082031 10.13476685 -3.62695312 9.10748291 C-3.29453613 8.19746521 -2.96211914 7.28744751 -2.61962891 6.34985352 C-2.32955963 5.55418472 -2.03949036 4.75851593 -1.7406311 3.93873596 C-1 2 -1 2 0 0 Z " fill="#047778" transform="translate(1424,360)"/>
<path d="M0 0 C5.94 0 11.88 0 18 0 C18.3403125 1.31226563 18.680625 2.62453125 19.03125 3.9765625 C19.5206978 5.85941024 20.01029428 7.74221933 20.5 9.625 C20.89179443 11.13380737 20.89179443 11.13380737 21.29150391 12.6730957 C22.89099582 18.81252679 24.51974581 24.94311023 26.1796875 31.06640625 C26.54760111 32.42820238 26.91543993 33.79001871 27.28320312 35.15185547 C27.82670145 37.16426655 28.37188731 39.17613686 28.92260742 41.18658447 C29.4398091 43.07500622 29.9504998 44.96520749 30.4609375 46.85546875 C30.75790527 47.94496826 31.05487305 49.03446777 31.36083984 50.15698242 C32 53 32 53 32 57 C32.66 57 33.32 57 34 57 C34.07734375 55.95972656 34.1546875 54.91945313 34.234375 53.84765625 C35.03458055 47.48098589 37.23730003 41.50431232 39.25 35.4375 C39.65677979 34.19274902 40.06355957 32.94799805 40.48266602 31.66552734 C41.64744959 28.10776967 42.82185267 24.55335117 44 21 C44.29052246 20.12005371 44.58104492 19.24010742 44.88037109 18.33349609 C46.23949687 14.21751221 47.61426578 10.10711587 49 6 C49.66 4.02 50.32 2.04 51 0 C57.6 0 64.2 0 71 0 C74.85372257 13.60204446 78.64111922 27.21234309 82.13330078 40.91235352 C82.48110596 42.26864868 82.48110596 42.26864868 82.8359375 43.65234375 C83.03751465 44.44632568 83.2390918 45.24030762 83.44677734 46.05834961 C83.95163875 48.05744986 83.95163875 48.05744986 85 50 C85.04022391 52.3329866 85.04320247 54.66706666 85 57 C85.66 57 86.32 57 87 57 C87.10828125 56.22140625 87.2165625 55.4428125 87.328125 54.640625 C88.19798145 49.92721678 89.46650408 45.36537926 90.75 40.75 C91.01659424 39.78215576 91.28318848 38.81431152 91.55786133 37.81713867 C92.36861308 34.87716911 93.18368616 31.93842952 94 29 C94.46745698 27.3138046 94.93490546 25.62760683 95.40234375 23.94140625 C96.23273926 20.9487612 97.06502081 17.95664867 97.8984375 14.96484375 C99.28519333 9.9818636 100.64510165 4.99173078 102 0 C107.94 0 113.88 0 120 0 C118.13028128 7.74029452 116.04425764 15.3114558 113.5625 22.875 C112.86499459 25.02705523 112.16844922 27.17942175 111.47265625 29.33203125 C111.0873877 30.5226416 110.70211914 31.71325195 110.30517578 32.93994141 C107.66377544 41.13476616 105.0889937 49.35101 102.5 57.5625 C101.95389445 59.29346871 101.40775265 61.02442599 100.86157227 62.75537109 C99.57377596 66.83672352 98.28690508 70.91836606 97 75 C90.4 75 83.8 75 77 75 C74.31741831 68.96419119 72.16877049 63.65069392 70.5625 57.375 C68.99194553 51.47109536 67.29192081 45.65505593 65.3125 39.875 C61 27.19516509 61 27.19516509 61 21 C60.34 21 59.68 21 59 21 C58.90203125 21.77859375 58.8040625 22.5571875 58.703125 23.359375 C57.78090887 28.1344052 56.27010231 32.63603297 54.75 37.25 C52.19367344 45.12259254 49.79638196 53.00839668 47.68652344 61.01269531 C46.39134428 65.85745312 44.78170682 70.24878182 43 75 C36.4 75 29.8 75 23 75 C12.79298779 46.023977 12.79298779 46.023977 9.77172852 34.57592773 C7.82980935 27.22012097 5.57896181 19.96408024 3.3215332 12.69970703 C3.0349585 11.7714209 2.74838379 10.84313477 2.453125 9.88671875 C2.06882324 8.65248169 2.06882324 8.65248169 1.67675781 7.39331055 C0.98915197 4.96163665 0.49558977 2.47794885 0 0 Z " fill="#047779" transform="translate(753,387)"/>
<path d="M0 0 C5.56234591 4.57224834 7.56268772 10.07896003 9 17 C9.37270775 21.34363942 9.35155793 25.65087334 9.29296875 30.0078125 C9.28872391 31.2144455 9.28447906 32.42107849 9.28010559 33.66427612 C9.26343155 37.48475293 9.2257995 41.304685 9.1875 45.125 C9.17243863 47.729159 9.15875278 50.33332634 9.14648438 52.9375 C9.11356484 59.29187373 9.06186022 65.64584479 9 72 C4.38 72 -0.24 72 -5 72 C-5.66 69.69 -6.32 67.38 -7 65 C-7.72445313 65.40992188 -8.44890625 65.81984375 -9.1953125 66.2421875 C-10.16210938 66.78101563 -11.12890625 67.31984375 -12.125 67.875 C-13.07632812 68.40867187 -14.02765625 68.94234375 -15.0078125 69.4921875 C-23.12110044 73.58060675 -31.5082566 74.23602794 -40.44140625 72.53515625 C-46.28695112 70.60189386 -51.16213553 67.0902146 -54.32421875 61.7734375 C-57.56847623 54.60192096 -58.40183661 47.2879708 -55.9375 39.75 C-51.02202477 32.77319645 -46.06968195 28.47296387 -37.67504883 26.43579102 C-34.67951645 25.94779017 -31.85909665 25.88739361 -28.82421875 25.90234375 C-27.66728516 25.90556641 -26.51035156 25.90878906 -25.31835938 25.91210938 C-24.12017578 25.92048828 -22.92199219 25.92886719 -21.6875 25.9375 C-19.8612207 25.94426758 -19.8612207 25.94426758 -17.99804688 25.95117188 C-14.99864774 25.96293422 -11.99934911 25.97937174 -9 26 C-9.11653742 24.57208611 -9.24521604 23.14516017 -9.37890625 21.71875 C-9.48440796 20.52668945 -9.48440796 20.52668945 -9.59204102 19.31054688 C-10.22230803 15.74091971 -11.70721558 13.77913263 -14 11 C-20.77401891 7.61299054 -33.87623671 9.008723 -41.05859375 10.89453125 C-43.77721067 11.818143 -46.39632178 12.79249706 -49 14 C-49.13489391 11.73078464 -49.23193995 9.4592933 -49.3125 7.1875 C-49.39951172 5.29064453 -49.39951172 5.29064453 -49.48828125 3.35546875 C-49 0 -49 0 -46.83203125 -1.84375 C-32.25519276 -7.7951213 -13.2370529 -9.75475631 0 0 Z " fill="#077A7B" transform="translate(1237,391)"/>
<path d="M0 0 C5.94 0 11.88 0 18 0 C18 12.87 18 25.74 18 39 C20.31 37.02 22.62 35.04 25 33 C32.86607885 27.9136633 40.77102675 26.6846307 50 28 C56.95398628 30.12456916 62.09982757 33.87983139 66 40 C69.43635627 47.18333204 69.39576257 54.30524376 69.29296875 62.12890625 C69.28872391 63.35915024 69.28447906 64.58939423 69.28010559 65.85691833 C69.26340766 69.75900816 69.22577075 73.66056812 69.1875 77.5625 C69.17073803 80.21939348 69.15875539 82.87628198 69.14648438 85.53320312 C69.11353306 92.02233739 69.06181132 98.51107907 69 105 C63.39 105 57.78 105 52 105 C51.98598145 102.68427979 51.98598145 102.68427979 51.97167969 100.32177734 C51.9317592 94.58515745 51.86599337 88.84907266 51.79248047 83.11279297 C51.76428304 80.63174319 51.74306245 78.15060378 51.72900391 75.66943359 C51.70755838 72.09946853 51.66089658 68.53057972 51.609375 64.9609375 C51.60814636 63.85446869 51.60691772 62.74799988 51.60565186 61.60800171 C51.48916161 55.46037463 51.1856954 51.63983093 47 47 C42.62584189 44.0838946 39.21047133 43.2813143 34 44 C27.61587634 46.78918024 22.13220087 51.73559825 19 58 C18.88177029 59.54142175 18.82300189 61.08761097 18.79467773 62.63330078 C18.77473251 63.59414581 18.75478729 64.55499084 18.73423767 65.54495239 C18.70916893 67.10438065 18.70916893 67.10438065 18.68359375 68.6953125 C18.66281265 69.75789276 18.64203156 70.82047302 18.62062073 71.91525269 C18.55509739 75.31843438 18.49622727 78.72169489 18.4375 82.125 C18.39431743 84.42839366 18.35070323 86.73177926 18.30664062 89.03515625 C18.19941313 94.69002284 18.09815351 100.34496892 18 106 C12.06 106 6.12 106 0 106 C0 71.02 0 36.04 0 0 Z " fill="#057779" transform="translate(981,357)"/>
<path d="M0 0 C22.77 0 45.54 0 69 0 C69 5.28 69 10.56 69 16 C51.84 16 34.68 16 17 16 C17 25.9 17 35.8 17 46 C31.85 46 46.7 46 62 46 C62 50.95 62 55.9 62 61 C47.15 61 32.3 61 17 61 C17 74.53 17 88.06 17 102 C11.39 102 5.78 102 0 102 C0 68.34 0 34.68 0 0 Z " fill="#05767B" transform="translate(1103,360)"/>
<path d="M0 0 C5.94 0 11.88 0 18 0 C18 25.08 18 50.16 18 76 C12.06 76 6.12 76 0 76 C0 72.7 0 69.4 0 66 C-0.78310547 66.68835938 -0.78310547 66.68835938 -1.58203125 67.390625 C-10.81051464 75.08372148 -19.35409239 77.80466055 -31.40234375 77.44921875 C-37.9664648 76.62959451 -43.36787129 74.07574359 -47.9375 69.25 C-53.09856623 61.1174108 -53.41718371 53.3251247 -53.29296875 43.87109375 C-53.28872391 42.64084976 -53.28447906 41.41060577 -53.28010559 40.14308167 C-53.26340766 36.24099184 -53.22577075 32.33943188 -53.1875 28.4375 C-53.17073803 25.78060652 -53.15875539 23.12371802 -53.14648438 20.46679688 C-53.11353306 13.97766261 -53.06181132 7.48892093 -53 1 C-47.06 1 -41.12 1 -35 1 C-34.98541748 2.57934326 -34.97083496 4.15868652 -34.95581055 5.78588867 C-34.89782447 11.64728399 -34.82059072 17.50829527 -34.73754883 23.36938477 C-34.70430112 25.90577968 -34.67626875 28.44224856 -34.65356445 30.97875977 C-34.6200166 34.62548328 -34.56769848 38.27152911 -34.51171875 41.91796875 C-34.50532883 43.05147263 -34.4989389 44.1849765 -34.49235535 45.35282898 C-34.46266411 46.94391228 -34.46266411 46.94391228 -34.43237305 48.56713867 C-34.42126999 49.49757492 -34.41016693 50.42801117 -34.39872742 51.38664246 C-33.91621515 54.54914648 -32.87285304 56.42224336 -31 59 C-26.47172891 62.01884739 -22.3041416 61.65260381 -17 61 C-9.99154447 58.93751166 -6.24365828 55.66884153 -2.30519104 49.6252594 C-0.06508533 45.11951396 -0.14943084 40.79239598 -0.1953125 35.83984375 C-0.18160614 34.80936417 -0.16789978 33.77888458 -0.15377808 32.71717834 C-0.11667402 29.45683347 -0.12017995 26.19802492 -0.125 22.9375 C-0.10685962 20.71416911 -0.08605274 18.49085827 -0.0625 16.26757812 C-0.0108321 10.84479688 0.00444327 5.42301378 0 0 Z " fill="#077A7C" transform="translate(910,231)"/>
<path d="M0 0 C5.36415356 5.6621621 8.38039259 12.26401769 8.36352539 20.03979492 C8.36341209 21.78126045 8.36341209 21.78126045 8.36329651 23.5579071 C8.35813522 24.81110245 8.35297394 26.06429779 8.34765625 27.35546875 C8.3462413 28.63859451 8.34482635 29.92172028 8.34336853 31.24372864 C8.33955405 34.65170241 8.32973291 38.05963343 8.31866455 41.46759033 C8.30842743 44.94648663 8.30386598 48.42538985 8.29882812 51.90429688 C8.28810967 58.72788389 8.27052152 65.55143549 8.25 72.375 C2.64 72.375 -2.97 72.375 -8.75 72.375 C-8.76401855 70.01384033 -8.76401855 70.01384033 -8.77832031 67.60498047 C-8.81823671 61.75654964 -8.88400146 55.90864391 -8.95751953 50.06054688 C-8.98571932 47.53099317 -9.00693873 45.00135151 -9.02099609 42.47167969 C-9.04243829 38.83222454 -9.0890986 35.19382585 -9.140625 31.5546875 C-9.14185364 30.42634491 -9.14308228 29.29800232 -9.14434814 28.13546753 C-9.25965918 21.93299403 -9.55837396 18.07946289 -13.75 13.375 C-17.24045599 10.63249886 -21.50105552 10.86576321 -25.75 11.375 C-32.91738456 13.68314079 -37.32806481 17.70222639 -40.75 24.375 C-41.61784409 27.24818307 -41.89508235 29.8733797 -41.95532227 32.86816406 C-41.97526749 33.74877502 -41.99521271 34.62938599 -42.01576233 35.53668213 C-42.04083107 36.94938385 -42.04083107 36.94938385 -42.06640625 38.390625 C-42.08718735 39.36159119 -42.10796844 40.33255737 -42.12937927 41.33294678 C-42.19468862 44.43022685 -42.25367323 47.52759068 -42.3125 50.625 C-42.35570292 52.72657111 -42.39931778 54.8281338 -42.44335938 56.9296875 C-42.55035098 62.07803948 -42.6516709 67.22647558 -42.75 72.375 C-48.69 72.375 -54.63 72.375 -60.75 72.375 C-60.75 47.295 -60.75 22.215 -60.75 -3.625 C-54.81 -3.625 -48.87 -3.625 -42.75 -3.625 C-42.42 -0.655 -42.09 2.315 -41.75 5.375 C-41.03714844 4.82070312 -40.32429688 4.26640625 -39.58984375 3.6953125 C-27.31062979 -5.592599 -13.7752312 -8.13990935 0 0 Z " fill="#05787A" transform="translate(1218.75,234.625)"/>
<path d="M0 0 C0 4.62 0 9.24 0 14 C-6 13 -6 13 -8.4375 12 C-16.38501788 8.89852961 -27.13240311 8.59779594 -35 12 C-35.33 14.31 -35.66 16.62 -36 19 C-30.36845101 23.71917513 -24.89020816 26.5362286 -18 29 C-10.09974112 31.82494105 -2.24801735 35.06511763 2.5 42.375 C5.17284334 48.8343714 4.46515708 54.4651826 2.10546875 60.890625 C-1.37828275 67.53806602 -8.05670177 70.36593676 -14.87890625 72.62109375 C-28.20152431 76.28670973 -41.43901285 74.02439486 -54 69 C-54 64.05 -54 59.1 -54 54 C-44.29887453 56.88411838 -44.29887453 56.88411838 -41.19921875 58.0859375 C-37.19359171 59.23040237 -33.57865764 59.29340078 -29.4375 59.25 C-28.69564453 59.25773437 -27.95378906 59.26546875 -27.18945312 59.2734375 C-23.05298596 59.25870387 -19.71932016 59.02742212 -16 57 C-14.49724659 53.99449319 -14.41234995 52.33001693 -15 49 C-19.87350896 44.85308111 -26.15509607 42.49730829 -32 40.0625 C-44.18285012 34.79172956 -44.18285012 34.79172956 -49 30 C-49.51949219 29.50371094 -50.03898437 29.00742187 -50.57421875 28.49609375 C-54.47739162 24.05823966 -54.68728784 19.63368012 -54.4140625 13.8671875 C-53.48916048 7.46267726 -49.96691965 3.22327662 -44.94921875 -0.7109375 C-32.69787055 -8.8130315 -12.66280571 -6.33140285 0 0 Z " fill="#05797A" transform="translate(1317,390)"/>
<path d="M0 0 C0 7.26 0 14.52 0 22 C6.27 22 12.54 22 19 22 C19 26.95 19 31.9 19 37 C12.73 37 6.46 37 0 37 C0.05103088 42.90937604 0.11393289 48.81610817 0.20751953 54.72460938 C0.23573807 56.73428827 0.25694821 58.74407834 0.27099609 60.75390625 C0.29241335 63.64380849 0.33905703 66.5323729 0.390625 69.421875 C0.39185364 70.31992859 0.39308228 71.21798218 0.39434814 72.14324951 C0.48394414 77.21599075 0.48394414 77.21599075 2.90161133 81.57202148 C5.3333162 83.22682565 6.52642479 83.45881054 9.4375 83.3125 C10.60925781 83.26029297 10.60925781 83.26029297 11.8046875 83.20703125 C14.25511377 82.97594123 16.61546143 82.61536479 19 82 C21.08401775 87.03637624 22.18957424 90.48654908 22 96 C11.40917417 98.82871024 1.1548195 101.49028249 -9.0625 96.25390625 C-15.13243186 92.32558341 -17.36602467 86.72759311 -19 80 C-19.36321019 76.56057226 -19.35280722 73.17023828 -19.29296875 69.71484375 C-19.28872391 68.77314835 -19.28447906 67.83145294 -19.28010559 66.86122131 C-19.26346216 63.88634282 -19.22583772 60.91216986 -19.1875 57.9375 C-19.1724346 55.9069109 -19.15874946 53.87631107 -19.14648438 51.84570312 C-19.11360578 46.89686819 -19.0619244 41.94855325 -19 37 C-22.3 37 -25.6 37 -29 37 C-29 32.05 -29 27.1 -29 22 C-25.37 22 -21.74 22 -18 22 C-18 15.73 -18 9.46 -18 3 C-15.586875 2.505 -13.17375 2.01 -10.6875 1.5 C-9.93170654 1.34337891 -9.17591309 1.18675781 -8.3972168 1.02539062 C-5.54118734 0.44707048 -2.92148456 0 0 0 Z " fill="#05797B" transform="translate(1358,365)"/>
<path d="M0 0 C0 6.93 0 13.86 0 21 C6.27 21 12.54 21 19 21 C19 25.95 19 30.9 19 36 C12.73 36 6.46 36 0 36 C0.05107662 41.74867357 0.11404402 47.4946512 0.20751953 53.24243164 C0.23570944 55.19676996 0.25693383 57.15122186 0.27099609 59.10571289 C0.29245307 61.91872223 0.33911695 64.73036871 0.390625 67.54296875 C0.39185364 68.41398727 0.39308228 69.2850058 0.39434814 70.18241882 C0.49173114 74.23443194 0.71121672 76.50779139 2.79980469 80.06762695 C5.50129032 82.44026996 7.36410063 82.46739321 10.89453125 82.2421875 C13.94643296 81.89113387 16.96881673 81.50519721 20 81 C20.53122363 82.76774419 21.04964073 84.53934083 21.5625 86.3125 C21.99755859 87.79169922 21.99755859 87.79169922 22.44140625 89.30078125 C23 92 23 92 22 95 C14.11641159 98.20353175 4.47533462 99.75992899 -3.734375 97.12109375 C-9.63093107 94.47811078 -12.79496096 91.58297123 -16 86 C-16.95987611 83.12037166 -17.12153814 81.33372559 -17.11352539 78.3449707 C-17.11344986 77.40422195 -17.11337433 76.46347321 -17.11329651 75.49421692 C-17.10813522 74.48163315 -17.10297394 73.46904938 -17.09765625 72.42578125 C-17.0962413 71.38681198 -17.09482635 70.34784271 -17.09336853 69.27738953 C-17.08776656 65.95573052 -17.07521372 62.63413867 -17.0625 59.3125 C-17.05748525 57.06184993 -17.0529223 54.81119881 -17.04882812 52.56054688 C-17.03779648 47.04033867 -17.02053051 41.52018072 -17 36 C-20.96 36 -24.92 36 -29 36 C-29 31.05 -29 26.1 -29 21 C-25.04 21 -21.08 21 -17 21 C-17 15.06 -17 9.12 -17 3 C-10.85511801 1.20149795 -6.45829286 0 0 0 Z " fill="#02797B" transform="translate(945,366)"/>
<path d="M0 0 C5.61 0 11.22 0 17 0 C18 1 18 1 18.12304783 2.77848911 C18.12166514 3.9496271 18.12166514 3.9496271 18.12025452 5.14442444 C18.12162918 6.03769943 18.12300385 6.93097443 18.12442017 7.85131836 C18.12082489 8.83890137 18.11722961 9.82648438 18.11352539 10.84399414 C18.11367142 11.87801865 18.11381744 12.91204315 18.1139679 13.97740173 C18.11326827 17.41334086 18.10547358 20.84922653 18.09765625 24.28515625 C18.09579225 26.66027293 18.09436826 29.03539 18.09336853 31.4105072 C18.08954197 37.67576144 18.0797105 43.94099267 18.06866455 50.20623779 C18.0584534 56.5938689 18.05387155 62.98150371 18.04882812 69.36914062 C18.03808836 81.91277055 18.02101029 94.45638337 18 107 C12.06 107 6.12 107 0 107 C0 71.69 0 36.38 0 0 Z " fill="#0D7C7E" transform="translate(988,200)"/>
<path d="M0 0 C5.94 0 11.88 0 18 0 C18 33.99 18 67.98 18 103 C12.06 103 6.12 103 0 103 C0 69.01 0 35.02 0 0 Z " fill="#0B7C7E" transform="translate(1590,360)"/>
<path d="M0 0 C5.94 0 11.88 0 18 0 C18 33.99 18 67.98 18 103 C12.06 103 6.12 103 0 103 C0 69.01 0 35.02 0 0 Z " fill="#0F7C7F" transform="translate(1551,204)"/>
<path d="M0 0 C4.67478644 2.89943816 7.46732907 7.02516164 9.046875 12.26953125 C9.36181247 15.73084763 9.37143657 19.17079826 9.359375 22.64453125 C9.37548828 23.56492187 9.39160156 24.4853125 9.40820312 25.43359375 C9.4128932 31.99970338 8.81527412 37.11103953 4.328125 42.23046875 C3.7403125 42.69710937 3.1525 43.16375 2.546875 43.64453125 C1.9590625 44.12664062 1.37125 44.60875 0.765625 45.10546875 C-4.33174524 48.55777859 -11.08911545 47.87786035 -16.953125 47.26953125 C-22.33771732 45.28622186 -24.88509293 41.38146127 -27.2265625 36.33203125 C-30.06984582 28.26077536 -31.0244872 15.51042214 -27.328125 7.51953125 C-20.77678081 -2.84181453 -10.75551767 -5.24795086 0 0 Z " fill="#FBFDFD" transform="translate(1068.953125,246.73046875)"/>
<path d="M0 0 C4.05523038 2.85709413 7.51585617 6.46921234 9.75 10.9375 C10.07492122 14.97228125 10.07465091 19.01626434 10.125 23.0625 C10.18107422 24.73699219 10.18107422 24.73699219 10.23828125 26.4453125 C10.31356918 33.53910815 9.60788879 38.55496606 4.75 43.9375 C-0.28633409 47.86584059 -4.51547104 49.44526436 -10.8359375 49.33203125 C-15.35733496 48.59309736 -18.23675822 46.29083679 -21.25 42.9375 C-26.9306827 34.92053653 -26.46347297 23.32070094 -25.25 13.9375 C-23.49605823 7.8490218 -20.72213934 3.33910013 -15.25 -0.0625 C-10.67415054 -2.35042473 -4.70768795 -1.53905183 0 0 Z " fill="#FBFDFD" transform="translate(1287.25,245.0625)"/>
<path d="M0 0 C1.01707031 -0.020625 2.03414062 -0.04125 3.08203125 -0.0625 C10.5074104 -0.10062775 17.43586235 0.34241402 23.375 5.1875 C23.91125 5.868125 24.4475 6.54875 25 7.25 C25.556875 7.930625 26.11375 8.61125 26.6875 9.3125 C29.77134001 13.86483525 29.56399396 18.96255665 29 24.25 C27.3317083 29.5722132 24.75990966 33.2315207 20 36.25 C16.06675889 38.14546623 12.95462885 38.48653677 8.60546875 38.4453125 C7.40341797 38.43886719 6.20136719 38.43242187 4.96289062 38.42578125 C3.71701172 38.40902344 2.47113281 38.39226562 1.1875 38.375 C-0.71032227 38.36146484 -0.71032227 38.36146484 -2.64648438 38.34765625 C-5.76451564 38.32412394 -8.88216097 38.29124545 -12 38.25 C-12.02464928 32.99894558 -12.04283568 27.74792455 -12.05493164 22.49682617 C-12.05997218 20.70905979 -12.06680454 18.92129755 -12.07543945 17.13354492 C-12.0875173 14.56948832 -12.09323094 12.00548603 -12.09765625 9.44140625 C-12.10281754 8.6372377 -12.10797882 7.83306915 -12.11329651 7.00453186 C-12.11349215 5.08598285 -12.06201983 3.16754632 -12 1.25 C-9.5622012 -1.1877988 -3.26913227 0.01608429 0 0 Z " fill="#F8FBFB" transform="translate(1488,217.75)"/>
<path d="M0 0 C3.774375 -0.061875 7.54875 -0.12375 11.4375 -0.1875 C12.60853271 -0.21481201 13.77956543 -0.24212402 14.98608398 -0.27026367 C21.72932033 -0.32333306 29.22607322 -0.29331261 34.58349609 4.38183594 C39.13270578 9.60858749 40.40928386 13.69918585 40.25 20.46875 C39.75778785 25.45239803 37.88722716 28.88462871 34.8125 32.75 C27.60838316 38.51329347 20.33703622 38.39201634 11.5 38.1875 C7.705 38.125625 3.91 38.06375 0 38 C0 25.46 0 12.92 0 0 Z " fill="#FBFCFD" transform="translate(1516,375)"/>
<path d="M0 0 C5.94 0 11.88 0 18 0 C18 25.08 18 50.16 18 76 C12.06 76 6.12 76 0 76 C0 50.92 0 25.84 0 0 Z " fill="#0A7A7E" transform="translate(1118,231)"/>
<path d="M0 0 C5.94 0 11.88 0 18 0 C18 25.08 18 50.16 18 76 C12.06 76 6.12 76 0 76 C0 50.92 0 25.84 0 0 Z " fill="#097C7F" transform="translate(949,231)"/>
<path d="M0 0 C5.61 0 11.22 0 17 0 C17 24.75 17 49.5 17 75 C11.39 75 5.78 75 0 75 C0 50.25 0 25.5 0 0 Z " fill="#007478" transform="translate(886,387)"/>
<path d="M0 0 C4.57255945 -0.09221969 9.14184845 -0.17172875 13.71459961 -0.21972656 C15.26744565 -0.2397487 16.82021719 -0.26697517 18.37280273 -0.30175781 C20.61460832 -0.3506961 22.85541093 -0.37306168 25.09765625 -0.390625 C25.78336197 -0.41127014 26.46906769 -0.43191528 27.17555237 -0.45318604 C32.63926908 -0.45568653 35.59560433 1.01085306 40 4 C43.08879339 7.40559272 44.25527073 9.98223264 44.4375 14.5 C44.16083505 19.98718813 42.56920133 23.54848877 38.5 27.3125 C34.21592288 30.20425206 30.47022395 30.13405916 25.48828125 30.09765625 C24.76005661 30.0962413 24.03183197 30.09482635 23.28153992 30.09336853 C20.95848461 30.08777659 18.63552612 30.07522562 16.3125 30.0625 C14.73632952 30.05748396 13.16015752 30.05292123 11.58398438 30.04882812 C7.72258905 30.03866121 3.86140275 30.01908436 0 30 C0 20.1 0 10.2 0 0 Z " fill="#FDFEFE" transform="translate(777,262)"/>
<path d="M0 0 C3.98431666 -0.09241972 7.96586315 -0.1718666 11.95068359 -0.21972656 C13.96347627 -0.24946045 15.97592134 -0.30031729 17.98828125 -0.3515625 C25.48875822 -0.42694418 30.68459703 -0.19478972 37 4 C39.91096205 7.09289717 40.23406255 9.82559761 40.4375 13.9375 C40.28235325 18.67652795 39.24117032 21.40843289 36 25 C31.87114768 28.09514344 28.83375461 28.35597228 23.73046875 28.29296875 C23.04946609 28.28872391 22.36846344 28.28447906 21.66682434 28.28010559 C19.50663541 28.2634061 17.34740358 28.22577312 15.1875 28.1875 C13.71681042 28.17244174 12.24610611 28.15875534 10.77539062 28.14648438 C7.18293466 28.11609135 3.59252966 28.0573615 0 28 C0 18.76 0 9.52 0 0 Z " fill="#FDFEFE" transform="translate(777,219)"/>
<path d="M0 0 C3.31846794 2.67187923 4.24295402 5.8437667 5.62890625 9.79296875 C5.86407455 10.45782791 6.09924286 11.12268707 6.34153748 11.80769348 C6.83713827 13.21420329 7.32858911 14.62218135 7.81616211 16.03149414 C8.55494523 18.16567592 9.30653543 20.29498522 10.06054688 22.42382812 C12.34148183 28.92163916 14.32462425 35.29849702 16 42 C5.77 42 -4.46 42 -15 42 C-11.63717605 31.91152815 -11.63717605 31.91152815 -10.0625 27.66015625 C-9.72476562 26.74169922 -9.38703125 25.82324219 -9.0390625 24.87695312 C-8.34762316 23.0040883 -7.65491918 21.13168988 -6.9609375 19.25976562 C-4.9752897 13.85228583 -3.17973481 8.44063261 -1.61328125 2.89624023 C-1 1 -1 1 0 0 Z " fill="#F3F8F9" transform="translate(1434,379)"/>
<path d="M0 0 C0.66 0 1.32 0 2 0 C3.83978016 5.0146693 5.67264718 10.03179172 7.49926758 15.05126953 C8.1210896 16.75703267 8.74476603 18.46212102 9.37036133 20.16650391 C10.27137625 22.62225341 11.16560412 25.08038516 12.05859375 27.5390625 C12.3377916 28.29555084 12.61698944 29.05203918 12.90464783 29.83145142 C13.16484207 30.5517453 13.42503632 31.27203918 13.69311523 32.01416016 C13.92183823 32.64037262 14.15056122 33.26658508 14.38621521 33.91177368 C15.16148708 36.54941337 15.54803164 39.28818987 16 42 C6.1 42 -3.8 42 -14 42 C-10.73713992 30.0361797 -10.73713992 30.0361797 -8.82568359 25.1484375 C-7.03081319 20.4781656 -5.44855877 15.72770689 -3.8125 11 C-3.26045898 9.40865234 -3.26045898 9.40865234 -2.69726562 7.78515625 C-1.79728655 5.19041138 -0.89821992 2.59535425 0 0 Z " fill="#F4F9FA" transform="translate(1392,222)"/>
<path d="M0 0 C0.92683594 0.01353516 1.85367187 0.02707031 2.80859375 0.04101562 C5.08133998 0.07616119 7.35285847 0.12535868 9.625 0.1875 C9.65721074 1.78372089 9.68016243 3.38013038 9.69921875 4.9765625 C9.71299561 5.86553223 9.72677246 6.75450195 9.7409668 7.67041016 C9.52217253 12.41939736 7.64092002 15.19903728 4.3125 18.4375 C-1.28424695 22.08189337 -6.81043772 22.9762182 -13.375 22.1875 C-17.03865969 20.59460448 -19.498479 18.74301347 -21.375 15.1875 C-21.875 11.75 -21.875 11.75 -21.375 8.1875 C-15.51263369 0.6009083 -8.96762819 -0.24945613 0 0 Z " fill="#F7FBFB" transform="translate(1219.375,427.8125)"/>
<path d="M0 0 C3.51738539 1.02095083 5.4213045 2.96473571 7.96484375 5.5703125 C9.51508839 8.67080178 9.2547639 11.14925468 8.96484375 14.5703125 C6.84173734 17.9824478 4.83006439 20.31979994 0.96484375 21.5703125 C-2.05619811 22.03003626 -4.07341133 22.17056629 -6.71875 20.51953125 C-10.29123377 17.61528185 -11.84783982 15.93504646 -12.47265625 11.3828125 C-11.96533774 6.96189409 -10.90399289 5.06298852 -7.87890625 1.90234375 C-5.2168748 -0.02086118 -3.23209906 -0.28536767 0 0 Z " fill="#087C7B" transform="translate(896.03515625,355.4296875)"/>
<path d="M0 0 C3.62416894 1.64734952 6.12851416 3.45402683 8 7 C8.5 10.4375 8.5 10.4375 8 14 C5.39417435 17.15442052 3.17973529 19.70023287 -0.98828125 20.2734375 C-5.20775776 20.45781799 -7.41131504 20.37243334 -11.0625 18.0625 C-13.65884755 13.95859581 -13.95259938 10.73725096 -13 6 C-9.39669759 0.23471614 -6.65938858 -0.45148397 0 0 Z " fill="#047777" transform="translate(1130,201)"/>
<path d="M0 0 C3.53528586 0.96289098 5.42441455 2.93276536 7.96484375 5.53515625 C9.51508839 8.63564553 9.2547639 11.11409843 8.96484375 14.53515625 C7.1692197 17.28844646 5.91229453 19.06143086 2.96484375 20.53515625 C-1.66729118 21.0902844 -5.01687752 21.17158045 -9.03515625 18.66015625 C-12.04383886 15.46343098 -12.51015192 13.06822569 -12.4375 8.64453125 C-11.82094992 5.41213275 -10.33588375 3.72446177 -7.87890625 1.609375 C-5.19129076 0.04349733 -3.07849029 -0.23044361 0 0 Z " fill="#05777B" transform="translate(959.03515625,200.46484375)"/>
<path d="M0 0 C5.28 0 10.56 0 16 0 C16 33.66 16 67.32 16 102 C10.72 102 5.44 102 0 102 C0 101.67 0 101.34 0 101 C4.95 101 9.9 101 15 101 C14.67 68.66 14.34 36.32 14 3 C10.99221479 1.99740493 8.46179353 1.69685358 5.3125 1.4375 C4.31863281 1.35371094 3.32476563 1.26992187 2.30078125 1.18359375 C1.16189453 1.09271484 1.16189453 1.09271484 0 1 C0 0.67 0 0.34 0 0 Z " fill="#006369" transform="translate(1552,204)"/>
<path d="M0 0 C6.27 0 12.54 0 19 0 C19 4.95 19 9.9 19 15 C12.73 15 6.46 15 0 15 C0 28.2 0 41.4 0 55 C-0.33 55 -0.66 55 -1 55 C-1 41.47 -1 27.94 -1 14 C4.94 13.67 10.88 13.34 17 13 C17 9.04 17 5.08 17 1 C11.39 1 5.78 1 0 1 C0 0.67 0 0.34 0 0 Z " fill="#2F858B" transform="translate(1358,387)"/>
<path d="M0 0 C0.99 0 1.98 0 3 0 C2.41764645 3.41012797 1.32513888 5.04281461 -1.125 7.453125 C-1.74890625 8.071875 -2.3728125 8.690625 -3.015625 9.328125 C-3.67046875 9.96234375 -4.3253125 10.5965625 -5 11.25 C-5.65484375 11.8996875 -6.3096875 12.549375 -6.984375 13.21875 C-11.84598214 18 -11.84598214 18 -13 18 C-13.375 15.8125 -13.375 15.8125 -13 13 C-10.1875 10.4375 -10.1875 10.4375 -8.51953125 9.203125 C-6.81641056 7.97188636 -6.81641056 7.97188636 -5.375 5.6875 C-4.92125 5.130625 -4.4675 4.57375 -4 4 C-2.68 4 -1.36 4 0 4 C0 2.68 0 1.36 0 0 Z " fill="#137876" transform="translate(649,454)"/>
<path d="M0 0 C0.66 0 1.32 0 2 0 C2 0.66 2 1.32 2 2 C2.99 2 3.98 2 5 2 C5 2.66 5 3.32 5 4 C5.56203125 4.22429687 6.1240625 4.44859375 6.703125 4.6796875 C9.67275417 6.38671923 11.50344167 8.54806544 13.75 11.125 C14.94882812 12.49011719 14.94882812 12.49011719 16.171875 13.8828125 C16.77515625 14.58148438 17.3784375 15.28015625 18 16 C17.34 16.66 16.68 17.32 16 18 C13.51269138 15.5706914 11.03662833 13.13022506 8.5625 10.6875 C7.50192383 9.65206055 7.50192383 9.65206055 6.41992188 8.59570312 C5.40961914 7.59506836 5.40961914 7.59506836 4.37890625 6.57421875 C3.7557251 5.96151123 3.13254395 5.34880371 2.49047852 4.7175293 C1 3 1 3 0 0 Z " fill="#1D6B74" transform="translate(437,454)"/>
<path d="M0 0 C1.485 0.99 1.485 0.99 3 2 C3 2.99 3 3.98 3 5 C3.66 5 4.32 5 5 5 C5 5.66 5 6.32 5 7 C5.66 7 6.32 7 7 7 C7 7.99 7 8.98 7 10 C7.66 10 8.32 10 9 10 C9.103125 10.639375 9.20625 11.27875 9.3125 11.9375 C9.539375 12.618125 9.76625 13.29875 10 14 C10.99 14.33 11.98 14.66 13 15 C13.33 16.65 13.66 18.3 14 20 C10.37194126 16.5072685 7.23294074 12.90528476 4.1875 8.875 C3.00220703 7.32425781 3.00220703 7.32425781 1.79296875 5.7421875 C0 3 0 3 0 0 Z " fill="#0F666B" transform="translate(416,426)"/>
<path d="M0 0 C0.33 0 0.66 0 1 0 C1.179315 8.24848987 0.56686752 16.12827293 -2 24 C-2.66 23.67 -3.32 23.34 -4 23 C-3.54593375 15.04601192 -2.12888539 7.67202093 0 0 Z " fill="#1C797D" transform="translate(549,261)"/>
<path d="M0 0 C0.33 0 0.66 0 1 0 C0.979375 0.763125 0.95875 1.52625 0.9375 2.3125 C0.87057159 5.10185786 0.87057159 5.10185786 2 8 C0.71937515 9.7074998 -0.61767557 11.37373596 -2 13 C-2.33 13.99 -2.66 14.98 -3 16 C-3.66 16 -4.32 16 -5 16 C-3.41078475 10.63904723 -1.81027062 5.29156027 0 0 Z " fill="#1B767B" transform="translate(1419,373)"/>
<path d="M0 0 C-0.56508523 3.47339053 -1.62643336 4.95006976 -4.3125 7.1875 C-5.20388672 7.95126953 -5.20388672 7.95126953 -6.11328125 8.73046875 C-8.09091784 10.0611766 -9.67100075 10.57327387 -12 11 C-11.67 10.34 -11.34 9.68 -11 9 C-10.34 9 -9.68 9 -9 9 C-8.6596875 8.1646875 -8.6596875 8.1646875 -8.3125 7.3125 C-6.49644015 4.11277551 -3.9498923 0 0 0 Z " fill="#09686C" transform="translate(1529,255)"/>
<path d="M0 0 C5.56816252 0 8.35664917 2.65043626 12.265625 6.2109375 C14 8 14 8 16 11 C15.67 11.99 15.34 12.98 15 14 C14.4225 13.071875 13.845 12.14375 13.25 11.1875 C10.49389866 7.28302311 8.50527371 5.5017579 4 4 C3.67 3.34 3.34 2.68 3 2 C0.97536745 1.34786708 0.97536745 1.34786708 -1 1 C-0.67 0.67 -0.34 0.34 0 0 Z " fill="#086262" transform="translate(1554,365)"/>
<path d="M0 0 C-0.58394531 0.2475 -1.16789062 0.495 -1.76953125 0.75 C-4.32931647 2.18455564 -5.79523301 3.76704286 -7.6875 6 C-8.28949219 6.70125 -8.89148438 7.4025 -9.51171875 8.125 C-11.05326755 9.9350436 -11.05326755 9.9350436 -12 12 C-12.66 12 -13.32 12 -14 12 C-11.59680339 4.99067655 -7.88980575 -0.42647599 0 0 Z " fill="#16757B" transform="translate(406,190)"/>
<path d="M0 0 C4.67496012 1.2021326 6.46383341 3.54132113 9.08203125 7.34375 C10 9 10 9 10 11 C9.34 11 8.68 11 8 11 C8 10.34 8 9.68 8 9 C7.01 8.67 6.02 8.34 5 8 C3.96986723 6.35178756 2.96885372 4.68496298 2 3 C1.34 2.67 0.68 2.34 0 2 C0 1.34 0 0.68 0 0 Z " fill="#136A69" transform="translate(1310,425)"/>
<path d="M0 0 C0.66 0.99 1.32 1.98 2 3 C-0.31 5.64 -2.62 8.28 -5 11 C-6 7 -6 7 -5 5 C-4.34 4.67 -3.68 4.34 -3 4 C-1.96854629 2.69084721 -0.96457834 1.35917857 0 0 Z " fill="#147276" transform="translate(1568,409)"/>
<path d="M0 0 C4.26290179 0.47365575 6.21548958 2.92238322 9 6 C9.99 7.485 9.99 7.485 11 9 C10.67 9.99 10.34 10.98 10 12 C9.773125 11.401875 9.54625 10.80375 9.3125 10.1875 C7.66348536 7.43914226 5.72640732 6.60788124 3 5 C2.67 4.01 2.34 3.02 2 2 C1.34 1.34 0.68 0.68 0 0 Z " fill="#0D6564" transform="translate(1213,233)"/>
<path d="M0 0 C4.34220113 0.50102321 6.86803007 3.14037528 10 6 C10.99 7.485 10.99 7.485 12 9 C11.67 9.99 11.34 10.98 11 12 C10.773125 11.21625 10.54625 10.4325 10.3125 9.625 C8.64331808 6.28663616 7.39365605 6.29282135 4 5 C1.6875 2.375 1.6875 2.375 0 0 Z " fill="#146365" transform="translate(1519,210)"/>
<path d="M0 0 C2 3 2 3 1.8125 6 C0.97094378 9.10728452 0.29577189 9.92081037 -2 12 C-1.85831863 10.56208484 -1.71148957 9.1246763 -1.5625 7.6875 C-1.48128906 6.88699219 -1.40007813 6.08648437 -1.31640625 5.26171875 C-1 3 -1 3 0 0 Z M3 0 C3.33 0.66 3.66 1.32 4 2 C3.34 1.67 2.68 1.34 2 1 C2.33 0.67 2.66 0.34 3 0 Z " fill="#1B7B7D" transform="translate(792,423)"/>
<path d="M0 0 C4.91211284 1.22802821 7.35403323 2.62397804 10 7 C10.25 9.8125 10.25 9.8125 10 12 C9.34 11.01 8.68 10.02 8 9 C5.94855599 5.99096116 5.94855599 5.99096116 3 4 C3 3.34 3 2.68 3 2 C2.01 2 1.02 2 0 2 C0 1.34 0 0.68 0 0 Z " fill="#166A68" transform="translate(1128,201)"/>
<path d="M0 0 C5.28 0 10.56 0 16 0 C16 2.64 16 5.28 16 8 C15.67 8 15.34 8 15 8 C15 6.35 15 4.7 15 3 C14.34 3 13.68 3 13 3 C13 2.34 13 1.68 13 1 C8.71 1 4.42 1 0 1 C0 0.67 0 0.34 0 0 Z " fill="#00696C" transform="translate(1591,361)"/>
<path d="M0 0 C0.99 0 1.98 0 3 0 C3 4.29 3 8.58 3 13 C1 11 1 11 0.9375 8.1875 C0.958125 7.135625 0.97875 6.08375 1 5 C0.708776 3.32546201 0.38929201 1.65449105 0 0 Z " fill="#00696A" transform="translate(942,366)"/>
<path d="M0 0 C0.33 0 0.66 0 1 0 C1 4.62 1 9.24 1 14 C-0.32 14 -1.64 14 -3 14 C-3 13.34 -3 12.68 -3 12 C-2.34 11.67 -1.68 11.34 -1 11 C-0.5316735 8.41394668 -0.5316735 8.41394668 -0.375 5.4375 C-0.30023437 4.42558594 -0.22546875 3.41367187 -0.1484375 2.37109375 C-0.09945313 1.58863281 -0.05046875 0.80617188 0 0 Z " fill="#1E7174" transform="translate(1316,390)"/>
<path d="M0 0 C0.66 0.99 1.32 1.98 2 3 C1.24451463 5.8475987 0.31613642 8.36772716 -1 11 C-1.66 11 -2.32 11 -3 11 C-2.01 7.37 -1.02 3.74 0 0 Z " fill="#23787E" transform="translate(1365,250)"/>
<path d="M0 0 C0 0.99 0 1.98 0 3 C-3 5.1875 -3 5.1875 -6 7 C-6.66 6.67 -7.32 6.34 -8 6 C-2.25 1.125 -2.25 1.125 0 0 Z " fill="#0B646B" transform="translate(1010,388)"/>
<path d="M0 0 C0.33 0.99 0.66 1.98 1 3 C1.66 3 2.32 3 3 3 C2.625 5.4375 2.625 5.4375 2 8 C1.01 8.495 1.01 8.495 0 9 C0 6.03 0 3.06 0 0 Z " fill="#E2F1F3" transform="translate(519,454)"/>
<path d="M0 0 C0.99 0 1.98 0 3 0 C5.1875 3 5.1875 3 7 6 C6.67 6.66 6.34 7.32 6 8 C4.99403703 7.0479279 3.99538437 6.08812654 3 5.125 C2.443125 4.59132813 1.88625 4.05765625 1.3125 3.5078125 C0 2 0 2 0 0 Z " fill="#0E636A" transform="translate(430,446)"/>
<path d="M0 0 C0.66 1.32 1.32 2.64 2 4 C0.68 5.65 -0.64 7.3 -2 9 C-2.66 8.67 -3.32 8.34 -4 8 C-2.68 5.36 -1.36 2.72 0 0 Z " fill="#187477" transform="translate(1556,397)"/>
</svg>
